<svg width="359" height="240" viewBox="0 0 359 240" fill="none" xmlns="http://www.w3.org/2000/svg">
<mask id="path-1-inside-1_46_106" fill="white">
<path d="M12 178.5H25.6094V180.5H12V178.5Z"/>
</mask>
<path d="M12 178.5H25.6094V180.5H12V178.5Z" fill="#F5F0DB"/>
<path d="M12 180.5H25.6094V176.5H12V180.5Z" fill="#A17D1C" mask="url(#path-1-inside-1_46_106)"/>
<mask id="path-3-inside-2_46_106" fill="white">
<path d="M49.6094 173.312H65.2969V180.5H49.6094V173.312Z"/>
</mask>
<path d="M49.6094 173.312H65.2969V180.5H49.6094V173.312Z" fill="#F5F0DB"/>
<path d="M49.6094 175.312H65.2969V171.312H49.6094V175.312Z" fill="#A17D1C" mask="url(#path-3-inside-2_46_106)"/>
<mask id="path-5-inside-3_46_106" fill="white">
<path d="M89.2969 34.7031H107.766V180.5H89.2969V34.7031Z"/>
</mask>
<path d="M89.2969 34.7031H107.766V180.5H89.2969V34.7031Z" fill="#F5F0DB"/>
<path d="M89.2969 36.7031H107.766V32.7031H89.2969V36.7031Z" fill="#A17D1C" mask="url(#path-5-inside-3_46_106)"/>
<mask id="path-7-inside-4_46_106" fill="white">
<path d="M131.766 164.312H154.125V180.5H131.766V164.312Z"/>
</mask>
<path d="M131.766 164.312H154.125V180.5H131.766V164.312Z" fill="#F5F0DB"/>
<path d="M131.766 166.312H154.125V162.312H131.766V166.312Z" fill="#A17D1C" mask="url(#path-7-inside-4_46_106)"/>
<mask id="path-9-inside-5_46_106" fill="white">
<path d="M178.125 178.5H206.25V180.5H178.125V178.5Z"/>
</mask>
<path d="M178.125 178.5H206.25V180.5H178.125V178.5Z" fill="#F5F0DB"/>
<path d="M178.125 180.5H206.25V176.5H178.125V180.5Z" fill="#A17D1C" mask="url(#path-9-inside-5_46_106)"/>
<mask id="path-11-inside-6_46_106" fill="white">
<path d="M230.25 151.703H267.688V180.5H230.25V151.703Z"/>
</mask>
<path d="M230.25 151.703H267.688V180.5H230.25V151.703Z" fill="#F5F0DB"/>
<path d="M230.25 153.703H267.688V149.703H230.25V153.703Z" fill="#A17D1C" mask="url(#path-11-inside-6_46_106)"/>
<mask id="path-13-inside-7_46_106" fill="white">
<path d="M291.688 115.703H346.016V180.5H291.688V115.703Z"/>
</mask>
<path d="M291.688 115.703H346.016V180.5H291.688V115.703Z" fill="#F5F0DB"/>
<path d="M291.688 117.703H346.016V113.703H291.688V117.703Z" fill="#A17D1C" mask="url(#path-13-inside-7_46_106)"/>
<path d="M1.144 219.5V210.4H3.12L6.435 215.795L5.018 215.782L8.372 210.4H10.27V219.5H8.125V216.666C8.125 215.886 8.14233 215.184 8.177 214.56C8.22033 213.936 8.28967 213.316 8.385 212.701L8.632 213.377L6.11 217.29H5.252L2.782 213.403L3.029 212.701C3.12433 213.282 3.18933 213.88 3.224 214.495C3.26733 215.102 3.289 215.825 3.289 216.666V219.5H1.144ZM15.7824 219.63C15.063 219.63 14.4217 219.474 13.8584 219.162C13.3037 218.85 12.8617 218.425 12.5324 217.888C12.2117 217.351 12.0514 216.735 12.0514 216.042C12.0514 215.349 12.2117 214.733 12.5324 214.196C12.8617 213.659 13.3037 213.234 13.8584 212.922C14.4217 212.61 15.063 212.454 15.7824 212.454C16.5017 212.454 17.1387 212.61 17.6934 212.922C18.2567 213.234 18.6987 213.659 19.0194 214.196C19.34 214.733 19.5004 215.349 19.5004 216.042C19.5004 216.735 19.34 217.351 19.0194 217.888C18.6987 218.425 18.2567 218.85 17.6934 219.162C17.1387 219.474 16.5017 219.63 15.7824 219.63ZM15.7824 217.836C16.0944 217.836 16.3717 217.758 16.6144 217.602C16.857 217.446 17.0477 217.234 17.1864 216.965C17.325 216.696 17.39 216.389 17.3814 216.042C17.39 215.695 17.325 215.388 17.1864 215.119C17.0477 214.842 16.857 214.625 16.6144 214.469C16.3717 214.313 16.0944 214.235 15.7824 214.235C15.4704 214.235 15.1887 214.313 14.9374 214.469C14.6947 214.625 14.504 214.842 14.3654 215.119C14.2267 215.388 14.1617 215.695 14.1704 216.042C14.1617 216.389 14.2267 216.696 14.3654 216.965C14.504 217.234 14.6947 217.446 14.9374 217.602C15.1887 217.758 15.4704 217.836 15.7824 217.836ZM21.0636 219.5V212.597H23.0396L23.1046 214.001L22.6886 214.157C22.784 213.845 22.953 213.563 23.1956 213.312C23.447 213.052 23.746 212.844 24.0926 212.688C24.4393 212.532 24.8033 212.454 25.1846 212.454C25.7046 212.454 26.1423 212.562 26.4976 212.779C26.853 212.987 27.1216 213.303 27.3036 213.728C27.4856 214.144 27.5766 214.655 27.5766 215.262V219.5H25.4836V215.431C25.4836 215.154 25.4446 214.924 25.3666 214.742C25.2886 214.56 25.1673 214.426 25.0026 214.339C24.8466 214.244 24.6516 214.2 24.4176 214.209C24.2356 214.209 24.0666 214.239 23.9106 214.3C23.7546 214.352 23.6203 214.434 23.5076 214.547C23.395 214.651 23.304 214.772 23.2346 214.911C23.174 215.05 23.1436 215.201 23.1436 215.366V219.5H22.1166C21.874 219.5 21.666 219.5 21.4926 219.5C21.3193 219.5 21.1763 219.5 21.0636 219.5Z" fill="#A17D1C"/>
<path d="M62.3752 219.5V212.35H59.6712V210.4H67.3542V212.35H64.5852V219.5H62.3752ZM69.9531 219.643C69.4418 219.643 69.0041 219.535 68.6401 219.318C68.2848 219.093 68.0075 218.772 67.8081 218.356C67.6175 217.94 67.5221 217.442 67.5221 216.861V212.597H69.6151V216.575C69.6151 216.852 69.6585 217.091 69.7451 217.29C69.8318 217.489 69.9618 217.645 70.1351 217.758C70.3085 217.862 70.5165 217.914 70.7591 217.914C70.9411 217.914 71.1058 217.884 71.2531 217.823C71.4091 217.762 71.5391 217.68 71.6431 217.576C71.7558 217.463 71.8425 217.338 71.9031 217.199C71.9638 217.052 71.9941 216.891 71.9941 216.718V212.597H74.0871V219.5H72.1241L72.0331 218.083L72.4231 217.927C72.3191 218.256 72.1458 218.551 71.9031 218.811C71.6605 219.062 71.3701 219.266 71.0321 219.422C70.6941 219.569 70.3345 219.643 69.9531 219.643ZM79.436 219.63C78.6733 219.63 78.0103 219.478 77.447 219.175C76.8837 218.863 76.446 218.443 76.134 217.914C75.822 217.377 75.666 216.766 75.666 216.081C75.666 215.552 75.7527 215.067 75.926 214.625C76.0993 214.183 76.342 213.802 76.654 213.481C76.966 213.152 77.3343 212.9 77.759 212.727C78.1923 212.545 78.6647 212.454 79.176 212.454C79.6613 212.454 80.1033 212.541 80.502 212.714C80.9093 212.887 81.2603 213.13 81.555 213.442C81.8497 213.754 82.075 214.122 82.231 214.547C82.387 214.972 82.4563 215.435 82.439 215.938L82.426 216.497H76.927L76.628 215.327H80.736L80.515 215.574V215.314C80.4977 215.097 80.4283 214.907 80.307 214.742C80.1943 214.569 80.0427 214.434 79.852 214.339C79.6613 214.244 79.4447 214.196 79.202 214.196C78.864 214.196 78.5737 214.265 78.331 214.404C78.097 214.534 77.9193 214.729 77.798 214.989C77.6767 215.24 77.616 215.552 77.616 215.925C77.616 216.306 77.694 216.64 77.85 216.926C78.0147 217.203 78.2487 217.42 78.552 217.576C78.864 217.732 79.2323 217.81 79.657 217.81C79.9517 217.81 80.2117 217.767 80.437 217.68C80.671 217.593 80.9223 217.446 81.191 217.238L82.166 218.616C81.8973 218.85 81.6113 219.041 81.308 219.188C81.0047 219.335 80.6927 219.444 80.372 219.513C80.06 219.591 79.748 219.63 79.436 219.63Z" fill="#A17D1C"/>
<path d="M116.496 219.5L113.766 210.4H116.015L117.38 215.184C117.44 215.401 117.492 215.622 117.536 215.847C117.588 216.064 117.627 216.272 117.653 216.471C117.687 216.67 117.713 216.857 117.731 217.03C117.748 217.195 117.765 217.333 117.783 217.446H117.497C117.549 217.125 117.592 216.839 117.627 216.588C117.67 216.337 117.718 216.103 117.77 215.886C117.822 215.661 117.887 215.427 117.965 215.184L119.317 211.583H121.085L122.411 215.184C122.515 215.47 122.601 215.739 122.671 215.99C122.74 216.241 122.792 216.484 122.827 216.718C122.87 216.943 122.905 217.169 122.931 217.394L122.671 217.433C122.688 217.277 122.701 217.134 122.71 217.004C122.718 216.865 122.727 216.735 122.736 216.614C122.753 216.484 122.77 216.35 122.788 216.211C122.805 216.072 122.831 215.921 122.866 215.756C122.9 215.583 122.948 215.388 123.009 215.171L124.361 210.4H126.558L123.828 219.5H122.138L119.98 214.261L120.227 214.287L118.238 219.5H116.496ZM130.707 219.63C129.944 219.63 129.281 219.478 128.718 219.175C128.154 218.863 127.717 218.443 127.405 217.914C127.093 217.377 126.937 216.766 126.937 216.081C126.937 215.552 127.023 215.067 127.197 214.625C127.37 214.183 127.613 213.802 127.925 213.481C128.237 213.152 128.605 212.9 129.03 212.727C129.463 212.545 129.935 212.454 130.447 212.454C130.932 212.454 131.374 212.541 131.773 212.714C132.18 212.887 132.531 213.13 132.826 213.442C133.12 213.754 133.346 214.122 133.502 214.547C133.658 214.972 133.727 215.435 133.71 215.938L133.697 216.497H128.198L127.899 215.327H132.007L131.786 215.574V215.314C131.768 215.097 131.699 214.907 131.578 214.742C131.465 214.569 131.313 214.434 131.123 214.339C130.932 214.244 130.715 214.196 130.473 214.196C130.135 214.196 129.844 214.265 129.602 214.404C129.368 214.534 129.19 214.729 129.069 214.989C128.947 215.24 128.887 215.552 128.887 215.925C128.887 216.306 128.965 216.64 129.121 216.926C129.285 217.203 129.519 217.42 129.823 217.576C130.135 217.732 130.503 217.81 130.928 217.81C131.222 217.81 131.482 217.767 131.708 217.68C131.942 217.593 132.193 217.446 132.462 217.238L133.437 218.616C133.168 218.85 132.882 219.041 132.579 219.188C132.275 219.335 131.963 219.444 131.643 219.513C131.331 219.591 131.019 219.63 130.707 219.63ZM137.859 219.643C137.261 219.643 136.728 219.491 136.26 219.188C135.801 218.876 135.437 218.451 135.168 217.914C134.899 217.368 134.765 216.748 134.765 216.055C134.765 215.362 134.899 214.746 135.168 214.209C135.437 213.663 135.805 213.234 136.273 212.922C136.741 212.61 137.278 212.454 137.885 212.454C138.197 212.454 138.496 212.502 138.782 212.597C139.068 212.692 139.328 212.822 139.562 212.987C139.796 213.152 139.987 213.342 140.134 213.559C140.281 213.767 140.368 213.984 140.394 214.209L139.9 214.326V209.88H141.993V219.5H140.056L139.939 217.927L140.355 217.992C140.329 218.209 140.242 218.417 140.095 218.616C139.956 218.815 139.774 218.993 139.549 219.149C139.324 219.296 139.064 219.413 138.769 219.5C138.483 219.595 138.18 219.643 137.859 219.643ZM138.392 217.914C138.713 217.914 138.99 217.836 139.224 217.68C139.458 217.524 139.636 217.307 139.757 217.03C139.887 216.753 139.952 216.428 139.952 216.055C139.952 215.674 139.887 215.344 139.757 215.067C139.636 214.79 139.458 214.573 139.224 214.417C138.99 214.261 138.713 214.183 138.392 214.183C138.071 214.183 137.794 214.261 137.56 214.417C137.335 214.573 137.157 214.79 137.027 215.067C136.897 215.344 136.832 215.674 136.832 216.055C136.832 216.428 136.897 216.753 137.027 217.03C137.157 217.307 137.335 217.524 137.56 217.68C137.794 217.836 138.071 217.914 138.392 217.914Z" fill="#A17D1C"/>
<path d="M176.808 219.5V212.35H174.104V210.4H181.787V212.35H179.018V219.5H176.808ZM183.329 219.5V209.88H185.37V214.001L184.954 214.157C185.05 213.845 185.219 213.563 185.461 213.312C185.713 213.052 186.012 212.844 186.358 212.688C186.705 212.532 187.069 212.454 187.45 212.454C187.97 212.454 188.408 212.562 188.763 212.779C189.119 212.987 189.387 213.303 189.569 213.728C189.751 214.144 189.842 214.655 189.842 215.262V219.5H187.749V215.431C187.749 215.154 187.71 214.924 187.632 214.742C187.554 214.56 187.433 214.426 187.268 214.339C187.112 214.244 186.917 214.2 186.683 214.209C186.501 214.209 186.332 214.239 186.176 214.3C186.02 214.352 185.886 214.434 185.773 214.547C185.661 214.651 185.57 214.772 185.5 214.911C185.44 215.05 185.409 215.201 185.409 215.366V219.5H184.382C184.14 219.5 183.932 219.5 183.758 219.5C183.585 219.5 183.442 219.5 183.329 219.5ZM194.135 219.643C193.624 219.643 193.186 219.535 192.822 219.318C192.467 219.093 192.19 218.772 191.99 218.356C191.8 217.94 191.704 217.442 191.704 216.861V212.597H193.797V216.575C193.797 216.852 193.841 217.091 193.927 217.29C194.014 217.489 194.144 217.645 194.317 217.758C194.491 217.862 194.699 217.914 194.941 217.914C195.123 217.914 195.288 217.884 195.435 217.823C195.591 217.762 195.721 217.68 195.825 217.576C195.938 217.463 196.025 217.338 196.085 217.199C196.146 217.052 196.176 216.891 196.176 216.718V212.597H198.269V219.5H196.306L196.215 218.083L196.605 217.927C196.501 218.256 196.328 218.551 196.085 218.811C195.843 219.062 195.552 219.266 195.214 219.422C194.876 219.569 194.517 219.643 194.135 219.643Z" fill="#A17D1C"/>
<path d="M231.212 219.5V210.4H233.422V219.5H231.212ZM232.239 216.016V214.17H236.945V216.016H232.239ZM232.239 212.35V210.4H237.478V212.35H232.239ZM239.116 219.5V212.597H241.092L241.183 214.846L240.793 214.417C240.897 214.044 241.066 213.711 241.3 213.416C241.542 213.121 241.824 212.887 242.145 212.714C242.465 212.541 242.808 212.454 243.172 212.454C243.328 212.454 243.471 212.467 243.601 212.493C243.739 212.519 243.865 212.549 243.978 212.584L243.406 214.885C243.31 214.824 243.18 214.777 243.016 214.742C242.86 214.699 242.695 214.677 242.522 214.677C242.331 214.677 242.153 214.712 241.989 214.781C241.824 214.842 241.685 214.933 241.573 215.054C241.46 215.175 241.369 215.318 241.3 215.483C241.239 215.648 241.209 215.834 241.209 216.042V219.5H239.116ZM245.358 219.5V212.597H247.438V219.5H245.358ZM246.398 211.232C246.008 211.232 245.7 211.141 245.475 210.959C245.258 210.768 245.15 210.5 245.15 210.153C245.15 209.841 245.262 209.585 245.488 209.386C245.713 209.187 246.016 209.087 246.398 209.087C246.788 209.087 247.091 209.182 247.308 209.373C247.524 209.555 247.633 209.815 247.633 210.153C247.633 210.474 247.52 210.734 247.295 210.933C247.078 211.132 246.779 211.232 246.398 211.232Z" fill="#A17D1C"/>
<path d="M283.483 219.63C282.885 219.63 282.343 219.561 281.858 219.422C281.381 219.275 280.957 219.067 280.584 218.798C280.211 218.521 279.878 218.196 279.583 217.823L280.922 216.302C281.355 216.883 281.789 217.273 282.222 217.472C282.664 217.671 283.119 217.771 283.587 217.771C283.821 217.771 284.033 217.741 284.224 217.68C284.415 217.619 284.562 217.533 284.666 217.42C284.77 217.299 284.822 217.151 284.822 216.978C284.822 216.848 284.787 216.731 284.718 216.627C284.657 216.523 284.571 216.432 284.458 216.354C284.345 216.276 284.211 216.207 284.055 216.146C283.899 216.077 283.734 216.02 283.561 215.977C283.388 215.925 283.21 215.882 283.028 215.847C282.525 215.734 282.088 215.596 281.715 215.431C281.342 215.266 281.03 215.067 280.779 214.833C280.536 214.59 280.354 214.317 280.233 214.014C280.112 213.702 280.051 213.355 280.051 212.974C280.051 212.567 280.142 212.194 280.324 211.856C280.515 211.509 280.766 211.215 281.078 210.972C281.399 210.721 281.767 210.53 282.183 210.4C282.599 210.261 283.032 210.192 283.483 210.192C284.081 210.192 284.592 210.257 285.017 210.387C285.45 210.508 285.819 210.686 286.122 210.92C286.434 211.154 286.698 211.436 286.915 211.765L285.55 213.078C285.368 212.853 285.169 212.666 284.952 212.519C284.744 212.372 284.519 212.259 284.276 212.181C284.042 212.103 283.799 212.064 283.548 212.064C283.288 212.064 283.063 212.099 282.872 212.168C282.69 212.229 282.547 212.32 282.443 212.441C282.339 212.554 282.287 212.692 282.287 212.857C282.287 213.004 282.33 213.13 282.417 213.234C282.504 213.338 282.621 213.433 282.768 213.52C282.915 213.598 283.084 213.667 283.275 213.728C283.466 213.78 283.665 213.823 283.873 213.858C284.35 213.953 284.779 214.079 285.16 214.235C285.55 214.391 285.884 214.582 286.161 214.807C286.447 215.032 286.664 215.301 286.811 215.613C286.967 215.916 287.045 216.272 287.045 216.679C287.045 217.312 286.889 217.849 286.577 218.291C286.274 218.724 285.853 219.058 285.316 219.292C284.787 219.517 284.176 219.63 283.483 219.63ZM291.231 219.617C290.651 219.617 290.131 219.465 289.671 219.162C289.221 218.85 288.861 218.425 288.592 217.888C288.324 217.342 288.189 216.727 288.189 216.042C288.189 215.34 288.324 214.72 288.592 214.183C288.861 213.646 289.229 213.225 289.697 212.922C290.165 212.61 290.698 212.454 291.296 212.454C291.626 212.454 291.925 212.502 292.193 212.597C292.471 212.692 292.713 212.827 292.921 213C293.129 213.165 293.307 213.36 293.454 213.585C293.602 213.802 293.71 214.036 293.779 214.287L293.35 214.235V212.597H295.417V219.5H293.311V217.836L293.779 217.823C293.71 218.066 293.597 218.295 293.441 218.512C293.285 218.729 293.095 218.919 292.869 219.084C292.644 219.249 292.393 219.379 292.115 219.474C291.838 219.569 291.543 219.617 291.231 219.617ZM291.803 217.862C292.124 217.862 292.401 217.788 292.635 217.641C292.869 217.494 293.051 217.286 293.181 217.017C293.311 216.74 293.376 216.415 293.376 216.042C293.376 215.669 293.311 215.349 293.181 215.08C293.051 214.803 292.869 214.59 292.635 214.443C292.401 214.287 292.124 214.209 291.803 214.209C291.491 214.209 291.218 214.287 290.984 214.443C290.759 214.59 290.581 214.803 290.451 215.08C290.321 215.349 290.256 215.669 290.256 216.042C290.256 216.415 290.321 216.74 290.451 217.017C290.581 217.286 290.759 217.494 290.984 217.641C291.218 217.788 291.491 217.862 291.803 217.862ZM298.021 219.5V210.855H300.101V219.5H298.021ZM296.799 214.417V212.597H301.44V214.417H296.799Z" fill="#A17D1C"/>
<path d="M336.723 219.63C336.125 219.63 335.583 219.561 335.098 219.422C334.621 219.275 334.196 219.067 333.824 218.798C333.451 218.521 333.117 218.196 332.823 217.823L334.162 216.302C334.595 216.883 335.028 217.273 335.462 217.472C335.904 217.671 336.359 217.771 336.827 217.771C337.061 217.771 337.273 217.741 337.464 217.68C337.654 217.619 337.802 217.533 337.906 217.42C338.01 217.299 338.062 217.151 338.062 216.978C338.062 216.848 338.027 216.731 337.958 216.627C337.897 216.523 337.81 216.432 337.698 216.354C337.585 216.276 337.451 216.207 337.295 216.146C337.139 216.077 336.974 216.02 336.801 215.977C336.627 215.925 336.45 215.882 336.268 215.847C335.765 215.734 335.327 215.596 334.955 215.431C334.582 215.266 334.27 215.067 334.019 214.833C333.776 214.59 333.594 214.317 333.473 214.014C333.351 213.702 333.291 213.355 333.291 212.974C333.291 212.567 333.382 212.194 333.564 211.856C333.754 211.509 334.006 211.215 334.318 210.972C334.638 210.721 335.007 210.53 335.423 210.4C335.839 210.261 336.272 210.192 336.723 210.192C337.321 210.192 337.832 210.257 338.257 210.387C338.69 210.508 339.058 210.686 339.362 210.92C339.674 211.154 339.938 211.436 340.155 211.765L338.79 213.078C338.608 212.853 338.408 212.666 338.192 212.519C337.984 212.372 337.758 212.259 337.516 212.181C337.282 212.103 337.039 212.064 336.788 212.064C336.528 212.064 336.302 212.099 336.112 212.168C335.93 212.229 335.787 212.32 335.683 212.441C335.579 212.554 335.527 212.692 335.527 212.857C335.527 213.004 335.57 213.13 335.657 213.234C335.743 213.338 335.86 213.433 336.008 213.52C336.155 213.598 336.324 213.667 336.515 213.728C336.705 213.78 336.905 213.823 337.113 213.858C337.589 213.953 338.018 214.079 338.4 214.235C338.79 214.391 339.123 214.582 339.401 214.807C339.687 215.032 339.903 215.301 340.051 215.613C340.207 215.916 340.285 216.272 340.285 216.679C340.285 217.312 340.129 217.849 339.817 218.291C339.513 218.724 339.093 219.058 338.556 219.292C338.027 219.517 337.416 219.63 336.723 219.63ZM344.276 219.643C343.765 219.643 343.327 219.535 342.963 219.318C342.608 219.093 342.33 218.772 342.131 218.356C341.94 217.94 341.845 217.442 341.845 216.861V212.597H343.938V216.575C343.938 216.852 343.981 217.091 344.068 217.29C344.155 217.489 344.285 217.645 344.458 217.758C344.631 217.862 344.839 217.914 345.082 217.914C345.264 217.914 345.429 217.884 345.576 217.823C345.732 217.762 345.862 217.68 345.966 217.576C346.079 217.463 346.165 217.338 346.226 217.199C346.287 217.052 346.317 216.891 346.317 216.718V212.597H348.41V219.5H346.447L346.356 218.083L346.746 217.927C346.642 218.256 346.469 218.551 346.226 218.811C345.983 219.062 345.693 219.266 345.355 219.422C345.017 219.569 344.657 219.643 344.276 219.643ZM350.47 219.5V212.597H352.446L352.511 214.001L352.095 214.157C352.19 213.845 352.359 213.563 352.602 213.312C352.853 213.052 353.152 212.844 353.499 212.688C353.846 212.532 354.21 212.454 354.591 212.454C355.111 212.454 355.549 212.562 355.904 212.779C356.259 212.987 356.528 213.303 356.71 213.728C356.892 214.144 356.983 214.655 356.983 215.262V219.5H354.89V215.431C354.89 215.154 354.851 214.924 354.773 214.742C354.695 214.56 354.574 214.426 354.409 214.339C354.253 214.244 354.058 214.2 353.824 214.209C353.642 214.209 353.473 214.239 353.317 214.3C353.161 214.352 353.027 214.434 352.914 214.547C352.801 214.651 352.71 214.772 352.641 214.911C352.58 215.05 352.55 215.201 352.55 215.366V219.5H351.523C351.28 219.5 351.072 219.5 350.899 219.5C350.726 219.5 350.583 219.5 350.47 219.5Z" fill="#A17D1C"/>
</svg>
