<svg width="19" height="20" viewBox="0 0 19 20" fill="none" xmlns="http://www.w3.org/2000/svg">
<path fill-rule="evenodd" clip-rule="evenodd" d="M18.75 9.36406V18.0312C18.75 18.8597 18.0784 19.5312 17.25 19.5312H13.5C12.6716 19.5312 12 18.8597 12 18.0312V14.2812C12 13.867 11.6642 13.5312 11.25 13.5312H8.25C7.83579 13.5312 7.5 13.867 7.5 14.2812V18.0312C7.5 18.8597 6.82843 19.5312 6 19.5312H2.25C1.42157 19.5312 0.75 18.8597 0.75 18.0312V9.36406C0.749936 8.94434 0.92573 8.54379 1.23469 8.25969L8.73469 1.18344L8.745 1.17313C9.31719 0.652751 10.1912 0.652751 10.7634 1.17313C10.7666 1.17679 10.7701 1.18024 10.7738 1.18344L18.2738 8.25969C18.5796 8.54527 18.7522 8.94562 18.75 9.36406Z" fill="#211A0A"/>
</svg>
