<svg width="28" height="29" viewBox="0 0 28 29" fill="none" xmlns="http://www.w3.org/2000/svg">
<path fill-rule="evenodd" clip-rule="evenodd" d="M14 3C7.37258 3 2 7.92487 2 14C2 20.0751 7.37258 25 14 25C20.6274 25 26 20.0751 26 14C25.993 7.92753 20.6245 3.00641 14 3ZM14 23.3077C8.39219 23.3077 3.84615 19.1405 3.84615 14C3.84615 8.8595 8.39219 4.69231 14 4.69231C19.6078 4.69231 24.1538 8.8595 24.1538 14C24.1475 19.1381 19.6052 23.3019 14 23.3077ZM18.2046 13.2956L12.6662 9.91096C12.3828 9.73768 12.0184 9.7215 11.7182 9.86886C11.4179 10.0162 11.2305 10.3032 11.2308 10.6154V17.3846C11.2305 17.6968 11.4179 17.9838 11.7182 18.1311C12.0184 18.2785 12.3828 18.2623 12.6662 18.089L18.2046 14.7044C18.4618 14.5475 18.6163 14.2832 18.6163 14C18.6163 13.7168 18.4618 13.4525 18.2046 13.2956ZM13.0769 15.8034V12.2019L16.0285 14L13.0769 15.8034Z" fill="#211A0A"/>
</svg>
