<svg width="25" height="33" viewBox="0 0 25 33" fill="none" xmlns="http://www.w3.org/2000/svg">
<g clip-path="url(#clip0_1_330)">
<path fill-rule="evenodd" clip-rule="evenodd" d="M23.5 15.7812H22.75V12.7812C22.75 11.9528 22.0784 11.2812 21.25 11.2812H19.75V10.5312C19.75 9.70282 19.0784 9.03125 18.25 9.03125H16C15.1716 9.03125 14.5 9.70282 14.5 10.5312V15.7812H10V10.5312C10 9.70282 9.32843 9.03125 8.5 9.03125H6.25C5.42157 9.03125 4.75 9.70282 4.75 10.5312V11.2812H3.25C2.42157 11.2812 1.75 11.9528 1.75 12.7812V15.7812H1C0.585786 15.7812 0.25 16.117 0.25 16.5312C0.25 16.9455 0.585786 17.2812 1 17.2812H1.75V20.2812C1.75 21.1097 2.42157 21.7812 3.25 21.7812H4.75V22.5312C4.75 23.3597 5.42157 24.0312 6.25 24.0312H8.5C9.32843 24.0312 10 23.3597 10 22.5312V17.2812H14.5V22.5312C14.5 23.3597 15.1716 24.0312 16 24.0312H18.25C19.0784 24.0312 19.75 23.3597 19.75 22.5312V21.7812H21.25C22.0784 21.7812 22.75 21.1097 22.75 20.2812V17.2812H23.5C23.9142 17.2812 24.25 16.9455 24.25 16.5312C24.25 16.117 23.9142 15.7812 23.5 15.7812ZM3.25 20.2812V12.7812H4.75V20.2812H3.25ZM8.5 22.5312H6.25V10.5312H8.5V22.5312ZM18.25 22.5312H16V10.5312H18.25V21.0144C18.25 21.02 18.25 21.0256 18.25 21.0312C18.25 21.0369 18.25 21.0425 18.25 21.0481V22.5312ZM21.25 20.2812H19.75V12.7812H21.25V20.2812Z" fill="#A17D1C"/>
</g>
<defs>
<clipPath id="clip0_1_330">
<rect width="24" height="24" fill="white" transform="translate(0.25 4.53125)"/>
</clipPath>
</defs>
</svg>
