<svg width="25" height="33" viewBox="0 0 25 33" fill="none" xmlns="http://www.w3.org/2000/svg">
<g clip-path="url(#clip0_1_339)">
<path fill-rule="evenodd" clip-rule="evenodd" d="M7.5 12.7812V8.28125C7.5 7.86704 7.83579 7.53125 8.25 7.53125C8.66421 7.53125 9 7.86704 9 8.28125V12.7812C9 13.1955 8.66421 13.5312 8.25 13.5312C7.83579 13.5312 7.5 13.1955 7.5 12.7812ZM21 8.28125V25.5312C21 25.9455 20.6642 26.2812 20.25 26.2812C19.8358 26.2812 19.5 25.9455 19.5 25.5312V21.0312H15C14.5858 21.0312 14.25 20.6955 14.25 20.2812C14.2848 18.4847 14.5117 16.697 14.9269 14.9487C15.8438 11.1528 17.5819 8.60844 19.9547 7.59219C20.1863 7.49295 20.4524 7.51671 20.6628 7.65541C20.8732 7.79412 20.9999 8.02923 21 8.28125ZM19.5 9.58437C16.4841 11.8878 15.8934 17.4987 15.7781 19.5312H19.5V9.58437ZM11.9897 8.15844C11.9497 7.8904 11.7682 7.66478 11.515 7.56826C11.2618 7.47174 10.9762 7.51934 10.7679 7.69277C10.5597 7.8662 10.4612 8.13848 10.5103 8.405L11.25 12.8403C11.25 14.4972 9.90685 15.8403 8.25 15.8403C6.59315 15.8403 5.25 14.4972 5.25 12.8403L5.98875 8.405C6.03786 8.13848 5.93938 7.8662 5.73114 7.69277C5.52289 7.51934 5.23729 7.47174 4.98406 7.56826C4.73082 7.66478 4.54936 7.8904 4.50938 8.15844L3.75938 12.6584C3.75296 12.6991 3.74982 12.7401 3.75 12.7812C3.75309 14.9758 5.33658 16.8491 7.5 17.2175V25.5312C7.5 25.9455 7.83579 26.2812 8.25 26.2812C8.66421 26.2812 9 25.9455 9 25.5312V17.2175C11.1634 16.8491 12.7469 14.9758 12.75 12.7812C12.7499 12.7401 12.7464 12.699 12.7397 12.6584L11.9897 8.15844Z" fill="#A17D1C"/>
</g>
<defs>
<clipPath id="clip0_1_339">
<rect width="24" height="24" fill="white" transform="translate(0.75 4.53125)"/>
</clipPath>
</defs>
</svg>
