<svg width="25" height="33" viewBox="0 0 25 33" fill="none" xmlns="http://www.w3.org/2000/svg">
<g clip-path="url(#clip0_1_348)">
<path fill-rule="evenodd" clip-rule="evenodd" d="M12.25 6.78125C6.86522 6.78125 2.5 11.1465 2.5 16.5312C2.5 21.916 6.86522 26.2812 12.25 26.2812C17.6348 26.2812 22 21.916 22 16.5312C21.9943 11.1488 17.6324 6.78693 12.25 6.78125ZM7.195 23.0469C8.2976 21.3224 10.2032 20.2791 12.25 20.2791C14.2968 20.2791 16.2024 21.3224 17.305 23.0469C14.3317 25.3593 10.1683 25.3593 7.195 23.0469ZM9.25 15.7812C9.25 14.1244 10.5931 12.7812 12.25 12.7812C13.9069 12.7812 15.25 14.1244 15.25 15.7812C15.25 17.4381 13.9069 18.7812 12.25 18.7812C10.5931 18.7812 9.25 17.4381 9.25 15.7812ZM18.415 22.0072C17.5785 20.7951 16.4024 19.8573 15.0344 19.3119C16.5406 18.1255 17.1297 16.115 16.5019 14.3033C15.8742 12.4916 14.1674 11.2767 12.25 11.2767C10.3326 11.2767 8.62584 12.4916 7.99805 14.3033C7.37026 16.115 7.95936 18.1255 9.46562 19.3119C8.09764 19.8573 6.92147 20.7951 6.085 22.0072C3.14046 18.696 3.33752 13.6501 6.53133 10.5786C9.72513 7.50704 14.7749 7.50704 17.9687 10.5786C21.1625 13.6501 21.3595 18.696 18.415 22.0072Z" fill="#A17D1C"/>
</g>
<defs>
<clipPath id="clip0_1_348">
<rect width="24" height="24" fill="white" transform="translate(0.25 4.53125)"/>
</clipPath>
</defs>
</svg>
