<svg 
width="24" 
height="24" fill="none" 
xmlns="http://www.w3.org/2000/svg">
<path d="M 20.793750762939453 16.494375228881836 C 20.273438274860382 15.598125219345093 19.5 13.062187433242798 19.5 9.75 C 19.5 5.6078643798828125 16.142135620117188 2.25 12 2.25 C 7.8578643798828125 2.25 4.500000000000002 5.6078643798828125 4.5 9.75 C 4.5 13.063124895095825 3.725624978542328 15.598125219345093 3.205312490463257 16.494375228881836 C 2.9348660111427307 16.95814675092697 2.9328991174697876 17.531094282865524 3.200155019760132 17.99671173095703 C 3.467410922050476 18.462329179048538 3.963133931159973 18.74961112914025 4.5 18.75 L 8.325937271118164 18.75 C 8.68266698718071 20.49556839466095 10.218353271484375 21.749156951904297 12 21.749156951904297 C 13.781646728515625 21.749156951904297 15.31733301281929 20.49556839466095 15.674062728881836 18.75 L 19.5 18.75 C 20.036698520183563 18.74927601602394 20.532113820314407 18.461861431598663 20.79914093017578 17.996305465698242 C 21.066168040037155 17.53074949979782 21.06411337852478 16.958002120256424 20.793750762939453 16.494375228881836 L 20.793750762939453 16.494375228881836 Z M 12 20.25 C 11.04674345254898 20.249705387977883 10.197127610445023 19.64873892068863 9.879375457763672 18.75 L 14.120624542236328 18.75 C 13.802872389554977 19.64873892068863 12.95325654745102 20.249705387977883 12 20.25 L 12 20.25 Z M 4.5 17.25 C 5.221875011920929 16.008749961853027 6 13.132499933242798 6 9.75 C 6 6.436291456222534 8.686291456222534 3.750000000000001 12 3.75 C 15.313708543777466 3.75 18 6.436291456222534 18 9.75 C 18 13.129687547683716 18.77625000476837 16.005937457084656 19.5 17.25 L 4.5 17.25 Z" fill="rgb(33.14999878406525,25.50000037997961,10.199999772012234)"/>
</svg>